<svg t="1704471659211" class="icon" viewBox="0 0 1025 1024" version="1.1" xmlns="http://www.w3.org/2000/svg" p-id="3217" width="20" height="20"><path d="M372.363636 1000.727273c-11.636364 0-23.272727 0-34.909091-2.327273-165.236364-16.290909-295.563636-146.618182-311.854545-311.854545-6.981818-72.145455 6.981818-141.963636 41.890909-204.8 20.945455-34.909091 25.6-76.8 13.963636-111.709091-11.636364-37.236364-13.963636-76.8-4.654545-114.036364C93.090909 165.236364 165.236364 93.090909 256 74.472727c16.290909-2.327273 30.254545-4.654545 46.545455-4.654545 23.272727 0 46.545455 2.327273 67.490909 9.309091 13.963636 4.654545 25.6 6.981818 39.563636 6.981818 25.6 0 48.872727-6.981818 72.145455-18.618182C535.272727 37.236364 593.454545 23.272727 651.636364 23.272727c11.636364 0 23.272727 0 34.909091 2.327273 165.236364 16.290909 295.563636 146.618182 311.854545 311.854545 6.981818 72.145455-6.981818 141.963636-41.890909 204.8-20.945455 34.909091-25.6 76.8-13.963636 111.709091 11.636364 37.236364 13.963636 76.8 4.654545 114.036364-18.618182 90.763636-90.763636 162.909091-181.527273 181.527273-16.290909 2.327273-30.254545 4.654545-46.545454 4.654545-23.272727 0-46.545455-2.327273-67.490909-9.309091-13.963636-4.654545-25.6-6.981818-39.563637-6.981818-25.6 0-48.872727 6.981818-72.145454 18.618182C488.727273 986.763636 430.545455 1000.727273 372.363636 1000.727273z" fill="#FFFFFF" p-id="3218"></path><path d="M372.363636 1024c-11.636364 0-25.6 0-37.236363-2.327273A367.709091 367.709091 0 0 1 2.327273 688.872727c-6.981818-76.8 6.981818-151.272727 44.218182-218.763636 16.290909-30.254545 20.945455-62.836364 11.636363-95.418182-11.636364-41.890909-13.963636-83.781818-6.981818-125.672727C69.818182 148.945455 151.272727 69.818182 251.345455 48.872727c41.890909-9.309091 86.109091-6.981818 125.672727 6.981818 30.254545 11.636364 65.163636 6.981818 95.418182-9.30909C537.6 9.309091 614.4-4.654545 691.2 2.327273 865.745455 20.945455 1005.381818 160.581818 1024 335.127273c6.981818 76.8-6.981818 151.272727-44.218182 218.763636-16.290909 30.254545-20.945455 62.836364-11.636363 95.418182 11.636364 41.890909 13.963636 83.781818 6.981818 125.672727-18.618182 100.072727-100.072727 179.2-200.145455 200.145455-41.890909 9.309091-86.109091 6.981818-125.672727-6.981818-30.254545-9.309091-65.163636-4.654545-95.418182 11.636363-55.854545 27.927273-118.690909 44.218182-181.527273 44.218182zM302.545455 93.090909c-13.963636 0-27.927273 2.327273-41.89091 4.654546-81.454545 16.290909-146.618182 81.454545-162.90909 162.90909-6.981818 34.909091-4.654545 69.818182 4.654545 102.4 13.963636 41.890909 6.981818 88.436364-13.963636 130.327273-32.581818 58.181818-46.545455 123.345455-39.563637 190.836364C62.836364 837.818182 186.181818 961.163636 339.781818 975.127273c67.490909 6.981818 132.654545-6.981818 190.836364-39.563637 41.890909-23.272727 88.436364-27.927273 130.327273-13.963636 32.581818 9.309091 67.490909 11.636364 102.4 4.654545 81.454545-16.290909 146.618182-81.454545 162.90909-162.90909 6.981818-34.909091 4.654545-69.818182-4.654545-102.4-13.963636-41.890909-6.981818-88.436364 13.963636-130.327273 32.581818-58.181818 46.545455-123.345455 39.563637-190.836364C961.163636 186.181818 837.818182 62.836364 684.218182 48.872727c-67.490909-6.981818-132.654545 6.981818-190.836364 39.563637-41.890909 23.272727-88.436364 27.927273-130.327273 13.963636-18.618182-6.981818-39.563636-9.309091-60.50909-9.309091z" fill="#014463" p-id="3219"></path><path d="M975.127273 339.781818c-4.654545-48.872727-20.945455-95.418182-46.545455-134.981818 11.636364 27.927273 18.618182 58.181818 23.272727 88.436364 6.981818 67.490909-6.981818 132.654545-39.563636 190.836363-23.272727 41.890909-27.927273 88.436364-13.963636 130.327273 9.309091 32.581818 11.636364 67.490909 4.654545 102.4-16.290909 81.454545-81.454545 146.618182-162.909091 162.909091-34.909091 6.981818-69.818182 4.654545-102.4-4.654546-41.890909-13.963636-88.436364-6.981818-130.327272 13.963637-58.181818 32.581818-123.345455 46.545455-190.836364 39.563636-104.727273-9.309091-193.163636-69.818182-244.363636-155.927273 44.218182 109.381818 146.618182 188.509091 267.636363 202.472728 67.490909 6.981818 132.654545-6.981818 190.836364-39.563637 41.890909-23.272727 88.436364-27.927273 130.327273-13.963636 32.581818 9.309091 67.490909 11.636364 102.4 4.654545 81.454545-16.290909 146.618182-81.454545 162.90909-162.90909 6.981818-34.909091 4.654545-69.818182-4.654545-102.4-13.963636-41.890909-6.981818-88.436364 13.963636-130.327273 32.581818-58.181818 46.545455-125.672727 39.563637-190.836364z" fill="#D4E3EE" p-id="3220"></path><path d="M698.181818 512c0 102.4-83.781818 186.181818-186.181818 186.181818s-186.181818-83.781818-186.181818-186.181818 83.781818-186.181818 186.181818-186.181818 186.181818 83.781818 186.181818 186.181818z" fill="#F6B545" p-id="3221"></path><path d="M512 721.454545c-116.363636 0-209.454545-93.090909-209.454545-209.454545s93.090909-209.454545 209.454545-209.454545 209.454545 93.090909 209.454545 209.454545-93.090909 209.454545-209.454545 209.454545z m0-372.363636c-90.763636 0-162.909091 72.145455-162.909091 162.909091s72.145455 162.909091 162.909091 162.909091 162.909091-72.145455 162.909091-162.909091-72.145455-162.909091-162.909091-162.909091z" fill="#014463" p-id="3222"></path><path d="M418.909091 535.272727c-13.963636 0-23.272727-9.309091-23.272727-23.272727 0-65.163636 51.2-116.363636 116.363636-116.363636 13.963636 0 23.272727 9.309091 23.272727 23.272727s-9.309091 23.272727-23.272727 23.272727c-39.563636 0-69.818182 30.254545-69.818182 69.818182 0 13.963636-9.309091 23.272727-23.272727 23.272727z" fill="#FFCB5B" p-id="3223"></path><path d="M600.436364 377.018182c16.290909 25.6 27.927273 55.854545 27.927272 88.436363 0 90.763636-72.145455 162.909091-162.909091 162.909091-32.581818 0-62.836364-9.309091-88.436363-27.927272 30.254545 44.218182 79.127273 74.472727 134.981818 74.472727 90.763636 0 162.909091-72.145455 162.909091-162.909091 0-55.854545-30.254545-107.054545-74.472727-134.981818z" fill="#F19920" p-id="3224"></path></svg>